<?xml version="1.0" encoding="UTF-8" standalone="no"?>
<!DOCTYPE svg PUBLIC "-//W3C//DTD SVG 1.1//EN"
 "http://www.w3.org/Graphics/SVG/1.1/DTD/svg11.dtd">
<!-- Generated by graphviz version 2.47.0 (20210316.0004)
 -->
<!-- Title: dependencies Pages: 1 -->
<svg width="504pt" height="211pt"
 viewBox="0.00 0.00 504.00 211.00" xmlns="http://www.w3.org/2000/svg" xmlns:xlink="http://www.w3.org/1999/xlink">
<g id="graph0" class="graph" transform="scale(1 1) rotate(0) translate(4 207)">
<title>dependencies</title>
<polygon fill="white" stroke="transparent" points="-4,4 -4,-207 500,-207 500,4 -4,4"/>
<text text-anchor="start" x="227.01" y="-42.4" font-family="sans-serif" font-weight="bold" font-size="14.00">Legend</text>
<polygon fill="#ffffb3" stroke="transparent" points="14,-10 14,-30 34,-30 34,-10 14,-10"/>
<text text-anchor="start" x="37.63" y="-15.4" font-family="sans-serif" font-size="14.00"> &#160;Declarations</text>
<polygon fill="#8dd3c7" stroke="transparent" points="127,-10 127,-30 147,-30 147,-10 127,-10"/>
<text text-anchor="start" x="150.73" y="-15.4" font-family="sans-serif" font-size="14.00"> &#160;Module</text>
<polygon fill="#80b1d3" stroke="transparent" points="213,-10 213,-30 233,-30 233,-10 213,-10"/>
<text text-anchor="start" x="236.78" y="-15.4" font-family="sans-serif" font-size="14.00"> &#160;Bootstrap</text>
<polygon fill="#fdb462" stroke="transparent" points="310,-10 310,-30 330,-30 330,-10 310,-10"/>
<text text-anchor="start" x="333.67" y="-15.4" font-family="sans-serif" font-size="14.00"> &#160;Providers</text>
<polygon fill="#fb8072" stroke="transparent" points="406,-10 406,-30 426,-30 426,-10 406,-10"/>
<text text-anchor="start" x="429.73" y="-15.4" font-family="sans-serif" font-size="14.00"> &#160;Exports</text>
<g id="clust1" class="cluster">
<title>cluster_TempSumPageModule</title>
<polygon fill="none" stroke="black" stroke-dasharray="1,5" points="74,-70 74,-195 422,-195 422,-70 74,-70"/>
</g>
<g id="clust4" class="cluster">
<title>cluster_TempSumPageModule_imports</title>
<polygon fill="none" stroke="black" points="208,-78 208,-130 414,-130 414,-78 208,-78"/>
</g>
<g id="clust2" class="cluster">
<title>cluster_TempSumPageModule_declarations</title>
<polygon fill="none" stroke="black" points="82,-78 82,-130 200,-130 200,-78 82,-78"/>
</g>
<!-- TempSumPage -->
<g id="node1" class="node">
<title>TempSumPage</title>
<polygon fill="#ffffb3" stroke="black" points="191.54,-122 90.46,-122 90.46,-86 191.54,-86 191.54,-122"/>
<text text-anchor="middle" x="141" y="-99.8" font-family="Times,serif" font-size="14.00">TempSumPage</text>
</g>
<!-- TempSumPageModule -->
<g id="node2" class="node">
<title>TempSumPageModule</title>
<polygon fill="#8dd3c7" stroke="black" points="305.59,-187 302.59,-191 281.59,-191 278.59,-187 160.41,-187 160.41,-151 305.59,-151 305.59,-187"/>
<text text-anchor="middle" x="233" y="-164.8" font-family="Times,serif" font-size="14.00">TempSumPageModule</text>
</g>
<!-- TempSumPage&#45;&gt;TempSumPageModule -->
<g id="edge1" class="edge">
<title>TempSumPage&#45;&gt;TempSumPageModule</title>
<path fill="none" stroke="black" d="M176.11,-122.11C176.11,-122.11 176.11,-140.99 176.11,-140.99"/>
<polygon fill="black" stroke="black" points="172.61,-140.99 176.11,-150.99 179.61,-140.99 172.61,-140.99"/>
</g>
<!-- TempSumPageRoutingModule -->
<g id="node3" class="node">
<title>TempSumPageRoutingModule</title>
<polygon fill="#8dd3c7" stroke="black" points="406.21,-122 403.21,-126 382.21,-126 379.21,-122 215.79,-122 215.79,-86 406.21,-86 406.21,-122"/>
<text text-anchor="middle" x="311" y="-99.8" font-family="Times,serif" font-size="14.00">TempSumPageRoutingModule</text>
</g>
<!-- TempSumPageRoutingModule&#45;&gt;TempSumPageModule -->
<g id="edge2" class="edge">
<title>TempSumPageRoutingModule&#45;&gt;TempSumPageModule</title>
<path fill="none" stroke="black" d="M260.72,-122.11C260.72,-122.11 260.72,-140.99 260.72,-140.99"/>
<polygon fill="black" stroke="black" points="257.22,-140.99 260.72,-150.99 264.22,-140.99 257.22,-140.99"/>
</g>
</g>
</svg>
