<?xml version="1.0" encoding="UTF-8" standalone="no"?>
<!DOCTYPE svg PUBLIC "-//W3C//DTD SVG 1.1//EN"
 "http://www.w3.org/Graphics/SVG/1.1/DTD/svg11.dtd">
<!-- Generated by graphviz version 2.47.0 (20210316.0004)
 -->
<!-- Title: dependencies Pages: 1 -->
<svg width="504pt" height="211pt"
 viewBox="0.00 0.00 504.00 211.00" xmlns="http://www.w3.org/2000/svg" xmlns:xlink="http://www.w3.org/1999/xlink">
<g id="graph0" class="graph" transform="scale(1 1) rotate(0) translate(4 207)">
<title>dependencies</title>
<polygon fill="white" stroke="transparent" points="-4,4 -4,-207 500,-207 500,4 -4,4"/>
<text text-anchor="start" x="227.01" y="-42.4" font-family="sans-serif" font-weight="bold" font-size="14.00">Legend</text>
<polygon fill="#ffffb3" stroke="transparent" points="14,-10 14,-30 34,-30 34,-10 14,-10"/>
<text text-anchor="start" x="37.63" y="-15.4" font-family="sans-serif" font-size="14.00"> &#160;Declarations</text>
<polygon fill="#8dd3c7" stroke="transparent" points="127,-10 127,-30 147,-30 147,-10 127,-10"/>
<text text-anchor="start" x="150.73" y="-15.4" font-family="sans-serif" font-size="14.00"> &#160;Module</text>
<polygon fill="#80b1d3" stroke="transparent" points="213,-10 213,-30 233,-30 233,-10 213,-10"/>
<text text-anchor="start" x="236.78" y="-15.4" font-family="sans-serif" font-size="14.00"> &#160;Bootstrap</text>
<polygon fill="#fdb462" stroke="transparent" points="310,-10 310,-30 330,-30 330,-10 310,-10"/>
<text text-anchor="start" x="333.67" y="-15.4" font-family="sans-serif" font-size="14.00"> &#160;Providers</text>
<polygon fill="#fb8072" stroke="transparent" points="406,-10 406,-30 426,-30 426,-10 406,-10"/>
<text text-anchor="start" x="429.73" y="-15.4" font-family="sans-serif" font-size="14.00"> &#160;Exports</text>
<g id="clust1" class="cluster">
<title>cluster_SystemresetedPageModule</title>
<polygon fill="none" stroke="black" stroke-dasharray="1,5" points="52,-70 52,-195 444,-195 444,-70 52,-70"/>
</g>
<g id="clust2" class="cluster">
<title>cluster_SystemresetedPageModule_declarations</title>
<polygon fill="none" stroke="black" points="296,-78 296,-130 436,-130 436,-78 296,-78"/>
</g>
<g id="clust4" class="cluster">
<title>cluster_SystemresetedPageModule_imports</title>
<polygon fill="none" stroke="black" points="60,-78 60,-130 288,-130 288,-78 60,-78"/>
</g>
<!-- SystemresetedPage -->
<g id="node1" class="node">
<title>SystemresetedPage</title>
<polygon fill="#ffffb3" stroke="black" points="428.07,-122 303.93,-122 303.93,-86 428.07,-86 428.07,-122"/>
<text text-anchor="middle" x="366" y="-99.8" font-family="Times,serif" font-size="14.00">SystemresetedPage</text>
</g>
<!-- SystemresetedPageModule -->
<g id="node2" class="node">
<title>SystemresetedPageModule</title>
<polygon fill="#8dd3c7" stroke="black" points="346.62,-187 343.62,-191 322.62,-191 319.62,-187 179.38,-187 179.38,-151 346.62,-151 346.62,-187"/>
<text text-anchor="middle" x="263" y="-164.8" font-family="Times,serif" font-size="14.00">SystemresetedPageModule</text>
</g>
<!-- SystemresetedPage&#45;&gt;SystemresetedPageModule -->
<g id="edge1" class="edge">
<title>SystemresetedPage&#45;&gt;SystemresetedPageModule</title>
<path fill="none" stroke="black" d="M325.39,-122.11C325.39,-122.11 325.39,-140.99 325.39,-140.99"/>
<polygon fill="black" stroke="black" points="321.89,-140.99 325.39,-150.99 328.89,-140.99 321.89,-140.99"/>
</g>
<!-- SystemresetedPageRoutingModule -->
<g id="node3" class="node">
<title>SystemresetedPageRoutingModule</title>
<polygon fill="#8dd3c7" stroke="black" points="280.24,-122 277.24,-126 256.24,-126 253.24,-122 67.76,-122 67.76,-86 280.24,-86 280.24,-122"/>
<text text-anchor="middle" x="174" y="-99.8" font-family="Times,serif" font-size="14.00">SystemresetedPageRoutingModule</text>
</g>
<!-- SystemresetedPageRoutingModule&#45;&gt;SystemresetedPageModule -->
<g id="edge2" class="edge">
<title>SystemresetedPageRoutingModule&#45;&gt;SystemresetedPageModule</title>
<path fill="none" stroke="black" d="M229.78,-122.11C229.78,-122.11 229.78,-140.99 229.78,-140.99"/>
<polygon fill="black" stroke="black" points="226.28,-140.99 229.78,-150.99 233.28,-140.99 226.28,-140.99"/>
</g>
</g>
</svg>
