<?xml version="1.0" encoding="UTF-8" standalone="no"?>
<!DOCTYPE svg PUBLIC "-//W3C//DTD SVG 1.1//EN"
 "http://www.w3.org/Graphics/SVG/1.1/DTD/svg11.dtd">
<!-- Generated by graphviz version 2.47.0 (20210316.0004)
 -->
<!-- Title: dependencies Pages: 1 -->
<svg width="504pt" height="211pt"
 viewBox="0.00 0.00 504.00 211.00" xmlns="http://www.w3.org/2000/svg" xmlns:xlink="http://www.w3.org/1999/xlink">
<g id="graph0" class="graph" transform="scale(1 1) rotate(0) translate(4 207)">
<title>dependencies</title>
<polygon fill="white" stroke="transparent" points="-4,4 -4,-207 500,-207 500,4 -4,4"/>
<text text-anchor="start" x="227.01" y="-42.4" font-family="sans-serif" font-weight="bold" font-size="14.00">Legend</text>
<polygon fill="#ffffb3" stroke="transparent" points="14,-10 14,-30 34,-30 34,-10 14,-10"/>
<text text-anchor="start" x="37.63" y="-15.4" font-family="sans-serif" font-size="14.00"> &#160;Declarations</text>
<polygon fill="#8dd3c7" stroke="transparent" points="127,-10 127,-30 147,-30 147,-10 127,-10"/>
<text text-anchor="start" x="150.73" y="-15.4" font-family="sans-serif" font-size="14.00"> &#160;Module</text>
<polygon fill="#80b1d3" stroke="transparent" points="213,-10 213,-30 233,-30 233,-10 213,-10"/>
<text text-anchor="start" x="236.78" y="-15.4" font-family="sans-serif" font-size="14.00"> &#160;Bootstrap</text>
<polygon fill="#fdb462" stroke="transparent" points="310,-10 310,-30 330,-30 330,-10 310,-10"/>
<text text-anchor="start" x="333.67" y="-15.4" font-family="sans-serif" font-size="14.00"> &#160;Providers</text>
<polygon fill="#fb8072" stroke="transparent" points="406,-10 406,-30 426,-30 426,-10 406,-10"/>
<text text-anchor="start" x="429.73" y="-15.4" font-family="sans-serif" font-size="14.00"> &#160;Exports</text>
<g id="clust1" class="cluster">
<title>cluster_SignInPageModule</title>
<polygon fill="none" stroke="black" stroke-dasharray="1,5" points="95,-70 95,-195 401,-195 401,-70 95,-70"/>
</g>
<g id="clust2" class="cluster">
<title>cluster_SignInPageModule_declarations</title>
<polygon fill="none" stroke="black" points="297,-78 297,-130 393,-130 393,-78 297,-78"/>
</g>
<g id="clust4" class="cluster">
<title>cluster_SignInPageModule_imports</title>
<polygon fill="none" stroke="black" points="103,-78 103,-130 289,-130 289,-78 103,-78"/>
</g>
<!-- SignInPage -->
<g id="node1" class="node">
<title>SignInPage</title>
<polygon fill="#ffffb3" stroke="black" points="385.05,-122 304.95,-122 304.95,-86 385.05,-86 385.05,-122"/>
<text text-anchor="middle" x="345" y="-99.8" font-family="Times,serif" font-size="14.00">SignInPage</text>
</g>
<!-- SignInPageModule -->
<g id="node2" class="node">
<title>SignInPageModule</title>
<polygon fill="#8dd3c7" stroke="black" points="325.1,-187 322.1,-191 301.1,-191 298.1,-187 200.9,-187 200.9,-151 325.1,-151 325.1,-187"/>
<text text-anchor="middle" x="263" y="-164.8" font-family="Times,serif" font-size="14.00">SignInPageModule</text>
</g>
<!-- SignInPage&#45;&gt;SignInPageModule -->
<g id="edge1" class="edge">
<title>SignInPage&#45;&gt;SignInPageModule</title>
<path fill="none" stroke="black" d="M314.89,-122.11C314.89,-122.11 314.89,-140.99 314.89,-140.99"/>
<polygon fill="black" stroke="black" points="311.39,-140.99 314.89,-150.99 318.39,-140.99 311.39,-140.99"/>
</g>
<!-- SignInPageRoutingModule -->
<g id="node3" class="node">
<title>SignInPageRoutingModule</title>
<polygon fill="#8dd3c7" stroke="black" points="280.71,-122 277.71,-126 256.71,-126 253.71,-122 111.29,-122 111.29,-86 280.71,-86 280.71,-122"/>
<text text-anchor="middle" x="196" y="-99.8" font-family="Times,serif" font-size="14.00">SignInPageRoutingModule</text>
</g>
<!-- SignInPageRoutingModule&#45;&gt;SignInPageModule -->
<g id="edge2" class="edge">
<title>SignInPageRoutingModule&#45;&gt;SignInPageModule</title>
<path fill="none" stroke="black" d="M240.78,-122.11C240.78,-122.11 240.78,-140.99 240.78,-140.99"/>
<polygon fill="black" stroke="black" points="237.28,-140.99 240.78,-150.99 244.28,-140.99 237.28,-140.99"/>
</g>
</g>
</svg>
