<?xml version="1.0" encoding="UTF-8" standalone="no"?>
<!DOCTYPE svg PUBLIC "-//W3C//DTD SVG 1.1//EN"
 "http://www.w3.org/Graphics/SVG/1.1/DTD/svg11.dtd">
<!-- Generated by graphviz version 2.47.0 (20210316.0004)
 -->
<!-- Title: dependencies Pages: 1 -->
<svg width="504pt" height="211pt"
 viewBox="0.00 0.00 504.00 211.00" xmlns="http://www.w3.org/2000/svg" xmlns:xlink="http://www.w3.org/1999/xlink">
<g id="graph0" class="graph" transform="scale(1 1) rotate(0) translate(4 207)">
<title>dependencies</title>
<polygon fill="white" stroke="transparent" points="-4,4 -4,-207 500,-207 500,4 -4,4"/>
<text text-anchor="start" x="227.01" y="-42.4" font-family="sans-serif" font-weight="bold" font-size="14.00">Legend</text>
<polygon fill="#ffffb3" stroke="transparent" points="14,-10 14,-30 34,-30 34,-10 14,-10"/>
<text text-anchor="start" x="37.63" y="-15.4" font-family="sans-serif" font-size="14.00"> &#160;Declarations</text>
<polygon fill="#8dd3c7" stroke="transparent" points="127,-10 127,-30 147,-30 147,-10 127,-10"/>
<text text-anchor="start" x="150.73" y="-15.4" font-family="sans-serif" font-size="14.00"> &#160;Module</text>
<polygon fill="#80b1d3" stroke="transparent" points="213,-10 213,-30 233,-30 233,-10 213,-10"/>
<text text-anchor="start" x="236.78" y="-15.4" font-family="sans-serif" font-size="14.00"> &#160;Bootstrap</text>
<polygon fill="#fdb462" stroke="transparent" points="310,-10 310,-30 330,-30 330,-10 310,-10"/>
<text text-anchor="start" x="333.67" y="-15.4" font-family="sans-serif" font-size="14.00"> &#160;Providers</text>
<polygon fill="#fb8072" stroke="transparent" points="406,-10 406,-30 426,-30 426,-10 406,-10"/>
<text text-anchor="start" x="429.73" y="-15.4" font-family="sans-serif" font-size="14.00"> &#160;Exports</text>
<g id="clust1" class="cluster">
<title>cluster_AdjustTempPageModule</title>
<polygon fill="none" stroke="black" stroke-dasharray="1,5" points="62,-70 62,-195 434,-195 434,-70 62,-70"/>
</g>
<g id="clust4" class="cluster">
<title>cluster_AdjustTempPageModule_imports</title>
<polygon fill="none" stroke="black" points="208,-78 208,-130 426,-130 426,-78 208,-78"/>
</g>
<g id="clust2" class="cluster">
<title>cluster_AdjustTempPageModule_declarations</title>
<polygon fill="none" stroke="black" points="70,-78 70,-130 200,-130 200,-78 70,-78"/>
</g>
<!-- AdjustTempPage -->
<g id="node1" class="node">
<title>AdjustTempPage</title>
<polygon fill="#ffffb3" stroke="black" points="191.7,-122 78.3,-122 78.3,-86 191.7,-86 191.7,-122"/>
<text text-anchor="middle" x="135" y="-99.8" font-family="Times,serif" font-size="14.00">AdjustTempPage</text>
</g>
<!-- AdjustTempPageModule -->
<g id="node2" class="node">
<title>AdjustTempPageModule</title>
<polygon fill="#8dd3c7" stroke="black" points="310.25,-187 307.25,-191 286.25,-191 283.25,-187 153.75,-187 153.75,-151 310.25,-151 310.25,-187"/>
<text text-anchor="middle" x="232" y="-164.8" font-family="Times,serif" font-size="14.00">AdjustTempPageModule</text>
</g>
<!-- AdjustTempPage&#45;&gt;AdjustTempPageModule -->
<g id="edge1" class="edge">
<title>AdjustTempPage&#45;&gt;AdjustTempPageModule</title>
<path fill="none" stroke="black" d="M172.61,-122.11C172.61,-122.11 172.61,-140.99 172.61,-140.99"/>
<polygon fill="black" stroke="black" points="169.11,-140.99 172.61,-150.99 176.11,-140.99 169.11,-140.99"/>
</g>
<!-- AdjustTempPageRoutingModule -->
<g id="node3" class="node">
<title>AdjustTempPageRoutingModule</title>
<polygon fill="#8dd3c7" stroke="black" points="417.87,-122 414.87,-126 393.87,-126 390.87,-122 216.13,-122 216.13,-86 417.87,-86 417.87,-122"/>
<text text-anchor="middle" x="317" y="-99.8" font-family="Times,serif" font-size="14.00">AdjustTempPageRoutingModule</text>
</g>
<!-- AdjustTempPageRoutingModule&#45;&gt;AdjustTempPageModule -->
<g id="edge2" class="edge">
<title>AdjustTempPageRoutingModule&#45;&gt;AdjustTempPageModule</title>
<path fill="none" stroke="black" d="M263.22,-122.11C263.22,-122.11 263.22,-140.99 263.22,-140.99"/>
<polygon fill="black" stroke="black" points="259.72,-140.99 263.22,-150.99 266.72,-140.99 259.72,-140.99"/>
</g>
</g>
</svg>
