<?xml version="1.0" encoding="UTF-8" standalone="no"?>
<!DOCTYPE svg PUBLIC "-//W3C//DTD SVG 1.1//EN"
 "http://www.w3.org/Graphics/SVG/1.1/DTD/svg11.dtd">
<!-- Generated by graphviz version 2.47.0 (20210316.0004)
 -->
<!-- Title: dependencies Pages: 1 -->
<svg width="504pt" height="211pt"
 viewBox="0.00 0.00 504.00 211.00" xmlns="http://www.w3.org/2000/svg" xmlns:xlink="http://www.w3.org/1999/xlink">
<g id="graph0" class="graph" transform="scale(1 1) rotate(0) translate(4 207)">
<title>dependencies</title>
<polygon fill="white" stroke="transparent" points="-4,4 -4,-207 500,-207 500,4 -4,4"/>
<text text-anchor="start" x="227.01" y="-42.4" font-family="sans-serif" font-weight="bold" font-size="14.00">Legend</text>
<polygon fill="#ffffb3" stroke="transparent" points="14,-10 14,-30 34,-30 34,-10 14,-10"/>
<text text-anchor="start" x="37.63" y="-15.4" font-family="sans-serif" font-size="14.00"> &#160;Declarations</text>
<polygon fill="#8dd3c7" stroke="transparent" points="127,-10 127,-30 147,-30 147,-10 127,-10"/>
<text text-anchor="start" x="150.73" y="-15.4" font-family="sans-serif" font-size="14.00"> &#160;Module</text>
<polygon fill="#80b1d3" stroke="transparent" points="213,-10 213,-30 233,-30 233,-10 213,-10"/>
<text text-anchor="start" x="236.78" y="-15.4" font-family="sans-serif" font-size="14.00"> &#160;Bootstrap</text>
<polygon fill="#fdb462" stroke="transparent" points="310,-10 310,-30 330,-30 330,-10 310,-10"/>
<text text-anchor="start" x="333.67" y="-15.4" font-family="sans-serif" font-size="14.00"> &#160;Providers</text>
<polygon fill="#fb8072" stroke="transparent" points="406,-10 406,-30 426,-30 426,-10 406,-10"/>
<text text-anchor="start" x="429.73" y="-15.4" font-family="sans-serif" font-size="14.00"> &#160;Exports</text>
<g id="clust1" class="cluster">
<title>cluster_ZoneScreenPageModule</title>
<polygon fill="none" stroke="black" stroke-dasharray="1,5" points="66,-70 66,-195 430,-195 430,-70 66,-70"/>
</g>
<g id="clust2" class="cluster">
<title>cluster_ZoneScreenPageModule_declarations</title>
<polygon fill="none" stroke="black" points="296,-78 296,-130 422,-130 422,-78 296,-78"/>
</g>
<g id="clust4" class="cluster">
<title>cluster_ZoneScreenPageModule_imports</title>
<polygon fill="none" stroke="black" points="74,-78 74,-130 288,-130 288,-78 74,-78"/>
</g>
<!-- ZoneScreenPage -->
<g id="node1" class="node">
<title>ZoneScreenPage</title>
<polygon fill="#ffffb3" stroke="black" points="414.07,-122 303.93,-122 303.93,-86 414.07,-86 414.07,-122"/>
<text text-anchor="middle" x="359" y="-99.8" font-family="Times,serif" font-size="14.00">ZoneScreenPage</text>
</g>
<!-- ZoneScreenPageModule -->
<g id="node2" class="node">
<title>ZoneScreenPageModule</title>
<polygon fill="#8dd3c7" stroke="black" points="339.62,-187 336.62,-191 315.62,-191 312.62,-187 186.38,-187 186.38,-151 339.62,-151 339.62,-187"/>
<text text-anchor="middle" x="263" y="-164.8" font-family="Times,serif" font-size="14.00">ZoneScreenPageModule</text>
</g>
<!-- ZoneScreenPage&#45;&gt;ZoneScreenPageModule -->
<g id="edge1" class="edge">
<title>ZoneScreenPage&#45;&gt;ZoneScreenPageModule</title>
<path fill="none" stroke="black" d="M321.89,-122.11C321.89,-122.11 321.89,-140.99 321.89,-140.99"/>
<polygon fill="black" stroke="black" points="318.39,-140.99 321.89,-150.99 325.39,-140.99 318.39,-140.99"/>
</g>
<!-- ZoneScreenPageRoutingModule -->
<g id="node3" class="node">
<title>ZoneScreenPageRoutingModule</title>
<polygon fill="#8dd3c7" stroke="black" points="280.23,-122 277.23,-126 256.23,-126 253.23,-122 81.77,-122 81.77,-86 280.23,-86 280.23,-122"/>
<text text-anchor="middle" x="181" y="-99.8" font-family="Times,serif" font-size="14.00">ZoneScreenPageRoutingModule</text>
</g>
<!-- ZoneScreenPageRoutingModule&#45;&gt;ZoneScreenPageModule -->
<g id="edge2" class="edge">
<title>ZoneScreenPageRoutingModule&#45;&gt;ZoneScreenPageModule</title>
<path fill="none" stroke="black" d="M233.28,-122.11C233.28,-122.11 233.28,-140.99 233.28,-140.99"/>
<polygon fill="black" stroke="black" points="229.78,-140.99 233.28,-150.99 236.78,-140.99 229.78,-140.99"/>
</g>
</g>
</svg>
