<?xml version="1.0" encoding="UTF-8" standalone="no"?>
<!DOCTYPE svg PUBLIC "-//W3C//DTD SVG 1.1//EN"
 "http://www.w3.org/Graphics/SVG/1.1/DTD/svg11.dtd">
<!-- Generated by graphviz version 2.47.0 (20210316.0004)
 -->
<!-- Title: dependencies Pages: 1 -->
<svg width="504pt" height="211pt"
 viewBox="0.00 0.00 504.00 211.00" xmlns="http://www.w3.org/2000/svg" xmlns:xlink="http://www.w3.org/1999/xlink">
<g id="graph0" class="graph" transform="scale(1 1) rotate(0) translate(4 207)">
<title>dependencies</title>
<polygon fill="white" stroke="transparent" points="-4,4 -4,-207 500,-207 500,4 -4,4"/>
<text text-anchor="start" x="227.01" y="-42.4" font-family="sans-serif" font-weight="bold" font-size="14.00">Legend</text>
<polygon fill="#ffffb3" stroke="transparent" points="14,-10 14,-30 34,-30 34,-10 14,-10"/>
<text text-anchor="start" x="37.63" y="-15.4" font-family="sans-serif" font-size="14.00"> &#160;Declarations</text>
<polygon fill="#8dd3c7" stroke="transparent" points="127,-10 127,-30 147,-30 147,-10 127,-10"/>
<text text-anchor="start" x="150.73" y="-15.4" font-family="sans-serif" font-size="14.00"> &#160;Module</text>
<polygon fill="#80b1d3" stroke="transparent" points="213,-10 213,-30 233,-30 233,-10 213,-10"/>
<text text-anchor="start" x="236.78" y="-15.4" font-family="sans-serif" font-size="14.00"> &#160;Bootstrap</text>
<polygon fill="#fdb462" stroke="transparent" points="310,-10 310,-30 330,-30 330,-10 310,-10"/>
<text text-anchor="start" x="333.67" y="-15.4" font-family="sans-serif" font-size="14.00"> &#160;Providers</text>
<polygon fill="#fb8072" stroke="transparent" points="406,-10 406,-30 426,-30 426,-10 406,-10"/>
<text text-anchor="start" x="429.73" y="-15.4" font-family="sans-serif" font-size="14.00"> &#160;Exports</text>
<g id="clust1" class="cluster">
<title>cluster_StartScreenPageModule</title>
<polygon fill="none" stroke="black" stroke-dasharray="1,5" points="68,-70 68,-195 428,-195 428,-70 68,-70"/>
</g>
<g id="clust4" class="cluster">
<title>cluster_StartScreenPageModule_imports</title>
<polygon fill="none" stroke="black" points="208,-78 208,-130 420,-130 420,-78 208,-78"/>
</g>
<g id="clust2" class="cluster">
<title>cluster_StartScreenPageModule_declarations</title>
<polygon fill="none" stroke="black" points="76,-78 76,-130 200,-130 200,-78 76,-78"/>
</g>
<!-- StartScreenPage -->
<g id="node1" class="node">
<title>StartScreenPage</title>
<polygon fill="#ffffb3" stroke="black" points="191.74,-122 84.26,-122 84.26,-86 191.74,-86 191.74,-122"/>
<text text-anchor="middle" x="138" y="-99.8" font-family="Times,serif" font-size="14.00">StartScreenPage</text>
</g>
<!-- StartScreenPageModule -->
<g id="node2" class="node">
<title>StartScreenPageModule</title>
<polygon fill="#8dd3c7" stroke="black" points="308.79,-187 305.79,-191 284.79,-191 281.79,-187 157.21,-187 157.21,-151 308.79,-151 308.79,-187"/>
<text text-anchor="middle" x="233" y="-164.8" font-family="Times,serif" font-size="14.00">StartScreenPageModule</text>
</g>
<!-- StartScreenPage&#45;&gt;StartScreenPageModule -->
<g id="edge1" class="edge">
<title>StartScreenPage&#45;&gt;StartScreenPageModule</title>
<path fill="none" stroke="black" d="M174.61,-122.11C174.61,-122.11 174.61,-140.99 174.61,-140.99"/>
<polygon fill="black" stroke="black" points="171.11,-140.99 174.61,-150.99 178.11,-140.99 171.11,-140.99"/>
</g>
<!-- StartScreenPageRoutingModule -->
<g id="node3" class="node">
<title>StartScreenPageRoutingModule</title>
<polygon fill="#8dd3c7" stroke="black" points="412.41,-122 409.41,-126 388.41,-126 385.41,-122 215.59,-122 215.59,-86 412.41,-86 412.41,-122"/>
<text text-anchor="middle" x="314" y="-99.8" font-family="Times,serif" font-size="14.00">StartScreenPageRoutingModule</text>
</g>
<!-- StartScreenPageRoutingModule&#45;&gt;StartScreenPageModule -->
<g id="edge2" class="edge">
<title>StartScreenPageRoutingModule&#45;&gt;StartScreenPageModule</title>
<path fill="none" stroke="black" d="M262.22,-122.11C262.22,-122.11 262.22,-140.99 262.22,-140.99"/>
<polygon fill="black" stroke="black" points="258.72,-140.99 262.22,-150.99 265.72,-140.99 258.72,-140.99"/>
</g>
</g>
</svg>
