<?xml version="1.0" encoding="UTF-8" standalone="no"?>
<!DOCTYPE svg PUBLIC "-//W3C//DTD SVG 1.1//EN"
 "http://www.w3.org/Graphics/SVG/1.1/DTD/svg11.dtd">
<!-- Generated by graphviz version 2.47.0 (20210316.0004)
 -->
<!-- Title: dependencies Pages: 1 -->
<svg width="5530pt" height="284pt"
 viewBox="0.00 0.00 5530.00 284.00" xmlns="http://www.w3.org/2000/svg" xmlns:xlink="http://www.w3.org/1999/xlink">
<g id="graph0" class="graph" transform="scale(1 1) rotate(0) translate(4 280)">
<title>dependencies</title>
<polygon fill="white" stroke="transparent" points="-4,4 -4,-280 5526,-280 5526,4 -4,4"/>
<text text-anchor="start" x="2740.01" y="-42.4" font-family="sans-serif" font-weight="bold" font-size="14.00">Legend</text>
<polygon fill="#ffffb3" stroke="transparent" points="2527,-10 2527,-30 2547,-30 2547,-10 2527,-10"/>
<text text-anchor="start" x="2550.63" y="-15.4" font-family="sans-serif" font-size="14.00"> &#160;Declarations</text>
<polygon fill="#8dd3c7" stroke="transparent" points="2640,-10 2640,-30 2660,-30 2660,-10 2640,-10"/>
<text text-anchor="start" x="2663.73" y="-15.4" font-family="sans-serif" font-size="14.00"> &#160;Module</text>
<polygon fill="#80b1d3" stroke="transparent" points="2726,-10 2726,-30 2746,-30 2746,-10 2726,-10"/>
<text text-anchor="start" x="2749.78" y="-15.4" font-family="sans-serif" font-size="14.00"> &#160;Bootstrap</text>
<polygon fill="#fdb462" stroke="transparent" points="2823,-10 2823,-30 2843,-30 2843,-10 2823,-10"/>
<text text-anchor="start" x="2846.67" y="-15.4" font-family="sans-serif" font-size="14.00"> &#160;Providers</text>
<polygon fill="#fb8072" stroke="transparent" points="2919,-10 2919,-30 2939,-30 2939,-10 2919,-10"/>
<text text-anchor="start" x="2942.73" y="-15.4" font-family="sans-serif" font-size="14.00"> &#160;Exports</text>
<g id="clust1" class="cluster">
<title>cluster_AdjustTempPageModule</title>
<polygon fill="none" stroke="black" stroke-dasharray="1,5" points="8,-70 8,-195 380,-195 380,-70 8,-70"/>
</g>
<g id="clust2" class="cluster">
<title>cluster_AdjustTempPageModule_declarations</title>
<polygon fill="none" stroke="black" points="242,-78 242,-130 372,-130 372,-78 242,-78"/>
</g>
<g id="clust4" class="cluster">
<title>cluster_AdjustTempPageModule_imports</title>
<polygon fill="none" stroke="black" points="16,-78 16,-130 234,-130 234,-78 16,-78"/>
</g>
<g id="clust14" class="cluster">
<title>cluster_AppModule</title>
<polygon fill="none" stroke="black" stroke-dasharray="1,5" points="388,-70 388,-268 678,-268 678,-70 388,-70"/>
</g>
<g id="clust15" class="cluster">
<title>cluster_AppModule_declarations</title>
<polygon fill="none" stroke="black" points="548,-78 548,-130 670,-130 670,-78 548,-78"/>
</g>
<g id="clust17" class="cluster">
<title>cluster_AppModule_imports</title>
<polygon fill="none" stroke="black" points="396,-78 396,-130 540,-130 540,-78 396,-78"/>
</g>
<g id="clust19" class="cluster">
<title>cluster_AppModule_bootstrap</title>
<polygon fill="none" stroke="black" points="476,-208 476,-260 600,-260 600,-208 476,-208"/>
</g>
<g id="clust27" class="cluster">
<title>cluster_ExploreContainerComponentModule</title>
<polygon fill="none" stroke="black" stroke-dasharray="1,5" points="686,-70 686,-268 926,-268 926,-70 686,-70"/>
</g>
<g id="clust28" class="cluster">
<title>cluster_ExploreContainerComponentModule_declarations</title>
<polygon fill="none" stroke="black" points="708,-78 708,-130 904,-130 904,-78 708,-78"/>
</g>
<g id="clust31" class="cluster">
<title>cluster_ExploreContainerComponentModule_exports</title>
<polygon fill="none" stroke="black" points="706,-208 706,-260 906,-260 906,-208 706,-208"/>
</g>
<g id="clust34" class="cluster">
<title>cluster_OpeningScreenPageModule</title>
<polygon fill="none" stroke="black" stroke-dasharray="1,5" points="934,-70 934,-195 1338,-195 1338,-70 934,-70"/>
</g>
<g id="clust35" class="cluster">
<title>cluster_OpeningScreenPageModule_declarations</title>
<polygon fill="none" stroke="black" points="1184,-78 1184,-130 1330,-130 1330,-78 1184,-78"/>
</g>
<g id="clust37" class="cluster">
<title>cluster_OpeningScreenPageModule_imports</title>
<polygon fill="none" stroke="black" points="942,-78 942,-130 1176,-130 1176,-78 942,-78"/>
</g>
<g id="clust47" class="cluster">
<title>cluster_PickZonePageModule</title>
<polygon fill="none" stroke="black" stroke-dasharray="1,5" points="1346,-70 1346,-195 1684,-195 1684,-70 1346,-70"/>
</g>
<g id="clust48" class="cluster">
<title>cluster_PickZonePageModule_declarations</title>
<polygon fill="none" stroke="black" points="1564,-78 1564,-130 1676,-130 1676,-78 1564,-78"/>
</g>
<g id="clust50" class="cluster">
<title>cluster_PickZonePageModule_imports</title>
<polygon fill="none" stroke="black" points="1354,-78 1354,-130 1556,-130 1556,-78 1354,-78"/>
</g>
<g id="clust60" class="cluster">
<title>cluster_SignInPageModule</title>
<polygon fill="none" stroke="black" stroke-dasharray="1,5" points="1692,-70 1692,-195 1998,-195 1998,-70 1692,-70"/>
</g>
<g id="clust61" class="cluster">
<title>cluster_SignInPageModule_declarations</title>
<polygon fill="none" stroke="black" points="1894,-78 1894,-130 1990,-130 1990,-78 1894,-78"/>
</g>
<g id="clust63" class="cluster">
<title>cluster_SignInPageModule_imports</title>
<polygon fill="none" stroke="black" points="1700,-78 1700,-130 1886,-130 1886,-78 1700,-78"/>
</g>
<g id="clust73" class="cluster">
<title>cluster_StartScreenPageModule</title>
<polygon fill="none" stroke="black" stroke-dasharray="1,5" points="2006,-70 2006,-195 2366,-195 2366,-70 2006,-70"/>
</g>
<g id="clust74" class="cluster">
<title>cluster_StartScreenPageModule_declarations</title>
<polygon fill="none" stroke="black" points="2234,-78 2234,-130 2358,-130 2358,-78 2234,-78"/>
</g>
<g id="clust76" class="cluster">
<title>cluster_StartScreenPageModule_imports</title>
<polygon fill="none" stroke="black" points="2014,-78 2014,-130 2226,-130 2226,-78 2014,-78"/>
</g>
<g id="clust86" class="cluster">
<title>cluster_SystemresetedPageModule</title>
<polygon fill="none" stroke="black" stroke-dasharray="1,5" points="2374,-70 2374,-195 2766,-195 2766,-70 2374,-70"/>
</g>
<g id="clust87" class="cluster">
<title>cluster_SystemresetedPageModule_declarations</title>
<polygon fill="none" stroke="black" points="2618,-78 2618,-130 2758,-130 2758,-78 2618,-78"/>
</g>
<g id="clust89" class="cluster">
<title>cluster_SystemresetedPageModule_imports</title>
<polygon fill="none" stroke="black" points="2382,-78 2382,-130 2610,-130 2610,-78 2382,-78"/>
</g>
<g id="clust99" class="cluster">
<title>cluster_SystemSolutionPageModule</title>
<polygon fill="none" stroke="black" stroke-dasharray="1,5" points="2774,-70 2774,-195 3182,-195 3182,-70 2774,-70"/>
</g>
<g id="clust100" class="cluster">
<title>cluster_SystemSolutionPageModule_declarations</title>
<polygon fill="none" stroke="black" points="3026,-78 3026,-130 3174,-130 3174,-78 3026,-78"/>
</g>
<g id="clust102" class="cluster">
<title>cluster_SystemSolutionPageModule_imports</title>
<polygon fill="none" stroke="black" points="2782,-78 2782,-130 3018,-130 3018,-78 2782,-78"/>
</g>
<g id="clust112" class="cluster">
<title>cluster_Tab1PageModule</title>
<polygon fill="none" stroke="black" stroke-dasharray="1,5" points="3190,-70 3190,-195 3478,-195 3478,-70 3190,-70"/>
</g>
<g id="clust113" class="cluster">
<title>cluster_Tab1PageModule_declarations</title>
<polygon fill="none" stroke="black" points="3382,-78 3382,-130 3470,-130 3470,-78 3382,-78"/>
</g>
<g id="clust115" class="cluster">
<title>cluster_Tab1PageModule_imports</title>
<polygon fill="none" stroke="black" points="3198,-78 3198,-130 3374,-130 3374,-78 3198,-78"/>
</g>
<g id="clust125" class="cluster">
<title>cluster_Tab2PageModule</title>
<polygon fill="none" stroke="black" stroke-dasharray="1,5" points="3486,-70 3486,-195 3774,-195 3774,-70 3486,-70"/>
</g>
<g id="clust126" class="cluster">
<title>cluster_Tab2PageModule_declarations</title>
<polygon fill="none" stroke="black" points="3678,-78 3678,-130 3766,-130 3766,-78 3678,-78"/>
</g>
<g id="clust128" class="cluster">
<title>cluster_Tab2PageModule_imports</title>
<polygon fill="none" stroke="black" points="3494,-78 3494,-130 3670,-130 3670,-78 3494,-78"/>
</g>
<g id="clust138" class="cluster">
<title>cluster_Tab3PageModule</title>
<polygon fill="none" stroke="black" stroke-dasharray="1,5" points="3782,-70 3782,-195 4070,-195 4070,-70 3782,-70"/>
</g>
<g id="clust139" class="cluster">
<title>cluster_Tab3PageModule_declarations</title>
<polygon fill="none" stroke="black" points="3974,-78 3974,-130 4062,-130 4062,-78 3974,-78"/>
</g>
<g id="clust141" class="cluster">
<title>cluster_Tab3PageModule_imports</title>
<polygon fill="none" stroke="black" points="3790,-78 3790,-130 3966,-130 3966,-78 3790,-78"/>
</g>
<g id="clust151" class="cluster">
<title>cluster_TabsPageModule</title>
<polygon fill="none" stroke="black" stroke-dasharray="1,5" points="4078,-70 4078,-195 4364,-195 4364,-70 4078,-70"/>
</g>
<g id="clust152" class="cluster">
<title>cluster_TabsPageModule_declarations</title>
<polygon fill="none" stroke="black" points="4270,-78 4270,-130 4356,-130 4356,-78 4270,-78"/>
</g>
<g id="clust154" class="cluster">
<title>cluster_TabsPageModule_imports</title>
<polygon fill="none" stroke="black" points="4086,-78 4086,-130 4262,-130 4262,-78 4086,-78"/>
</g>
<g id="clust164" class="cluster">
<title>cluster_TempSumPageModule</title>
<polygon fill="none" stroke="black" stroke-dasharray="1,5" points="4372,-70 4372,-195 4720,-195 4720,-70 4372,-70"/>
</g>
<g id="clust165" class="cluster">
<title>cluster_TempSumPageModule_declarations</title>
<polygon fill="none" stroke="black" points="4594,-78 4594,-130 4712,-130 4712,-78 4594,-78"/>
</g>
<g id="clust167" class="cluster">
<title>cluster_TempSumPageModule_imports</title>
<polygon fill="none" stroke="black" points="4380,-78 4380,-130 4586,-130 4586,-78 4380,-78"/>
</g>
<g id="clust177" class="cluster">
<title>cluster_WelcomeScreenPageModule</title>
<polygon fill="none" stroke="black" stroke-dasharray="1,5" points="4728,-70 4728,-195 5142,-195 5142,-70 4728,-70"/>
</g>
<g id="clust178" class="cluster">
<title>cluster_WelcomeScreenPageModule_declarations</title>
<polygon fill="none" stroke="black" points="4984,-78 4984,-130 5134,-130 5134,-78 4984,-78"/>
</g>
<g id="clust180" class="cluster">
<title>cluster_WelcomeScreenPageModule_imports</title>
<polygon fill="none" stroke="black" points="4736,-78 4736,-130 4976,-130 4976,-78 4736,-78"/>
</g>
<g id="clust190" class="cluster">
<title>cluster_ZoneScreenPageModule</title>
<polygon fill="none" stroke="black" stroke-dasharray="1,5" points="5150,-70 5150,-195 5514,-195 5514,-70 5150,-70"/>
</g>
<g id="clust191" class="cluster">
<title>cluster_ZoneScreenPageModule_declarations</title>
<polygon fill="none" stroke="black" points="5380,-78 5380,-130 5506,-130 5506,-78 5380,-78"/>
</g>
<g id="clust193" class="cluster">
<title>cluster_ZoneScreenPageModule_imports</title>
<polygon fill="none" stroke="black" points="5158,-78 5158,-130 5372,-130 5372,-78 5158,-78"/>
</g>
<!-- AdjustTempPage -->
<g id="node1" class="node">
<title>AdjustTempPage</title>
<polygon fill="#ffffb3" stroke="black" points="363.7,-122 250.3,-122 250.3,-86 363.7,-86 363.7,-122"/>
<text text-anchor="middle" x="307" y="-99.8" font-family="Times,serif" font-size="14.00">AdjustTempPage</text>
</g>
<!-- AdjustTempPageModule -->
<g id="node2" class="node">
<title>AdjustTempPageModule</title>
<polygon fill="#8dd3c7" stroke="black" points="287.25,-187 284.25,-191 263.25,-191 260.25,-187 130.75,-187 130.75,-151 287.25,-151 287.25,-187"/>
<text text-anchor="middle" x="209" y="-164.8" font-family="Times,serif" font-size="14.00">AdjustTempPageModule</text>
</g>
<!-- AdjustTempPage&#45;&gt;AdjustTempPageModule -->
<g id="edge1" class="edge">
<title>AdjustTempPage&#45;&gt;AdjustTempPageModule</title>
<path fill="none" stroke="black" d="M275.05,-122.11C275.05,-122.11 275.05,-140.99 275.05,-140.99"/>
<polygon fill="black" stroke="black" points="271.55,-140.99 275.05,-150.99 278.55,-140.99 271.55,-140.99"/>
</g>
<!-- AdjustTempPage&#45;&gt;AdjustTempPageModule -->
<g id="edge3" class="edge">
<title>AdjustTempPage&#45;&gt;AdjustTempPageModule</title>
<path fill="none" stroke="black" d="M262.72,-122.11C262.72,-122.11 262.72,-140.99 262.72,-140.99"/>
<polygon fill="black" stroke="black" points="259.22,-140.99 262.72,-150.99 266.22,-140.99 259.22,-140.99"/>
</g>
<!-- AdjustTempPageRoutingModule -->
<g id="node3" class="node">
<title>AdjustTempPageRoutingModule</title>
<polygon fill="#8dd3c7" stroke="black" points="225.87,-122 222.87,-126 201.87,-126 198.87,-122 24.13,-122 24.13,-86 225.87,-86 225.87,-122"/>
<text text-anchor="middle" x="125" y="-99.8" font-family="Times,serif" font-size="14.00">AdjustTempPageRoutingModule</text>
</g>
<!-- AdjustTempPageRoutingModule&#45;&gt;AdjustTempPageModule -->
<g id="edge2" class="edge">
<title>AdjustTempPageRoutingModule&#45;&gt;AdjustTempPageModule</title>
<path fill="none" stroke="black" d="M194.16,-122.11C194.16,-122.11 194.16,-140.99 194.16,-140.99"/>
<polygon fill="black" stroke="black" points="190.66,-140.99 194.16,-150.99 197.66,-140.99 190.66,-140.99"/>
</g>
<!-- AdjustTempPageRoutingModule&#45;&gt;AdjustTempPageModule -->
<g id="edge4" class="edge">
<title>AdjustTempPageRoutingModule&#45;&gt;AdjustTempPageModule</title>
<path fill="none" stroke="black" d="M162.39,-122.11C162.39,-122.11 162.39,-140.99 162.39,-140.99"/>
<polygon fill="black" stroke="black" points="158.89,-140.99 162.39,-150.99 165.89,-140.99 158.89,-140.99"/>
</g>
<!-- AppComponent -->
<g id="node4" class="node">
<title>AppComponent</title>
<polygon fill="#ffffb3" stroke="black" points="661.94,-122 556.06,-122 556.06,-86 661.94,-86 661.94,-122"/>
<text text-anchor="middle" x="609" y="-99.8" font-family="Times,serif" font-size="14.00">AppComponent</text>
</g>
<!-- AppModule -->
<g id="node5" class="node">
<title>AppModule</title>
<polygon fill="#8dd3c7" stroke="black" points="579.66,-187 576.66,-191 555.66,-191 552.66,-187 496.34,-187 496.34,-151 579.66,-151 579.66,-187"/>
<text text-anchor="middle" x="538" y="-164.8" font-family="Times,serif" font-size="14.00">AppModule</text>
</g>
<!-- AppComponent&#45;&gt;AppModule -->
<g id="edge5" class="edge">
<title>AppComponent&#45;&gt;AppModule</title>
<path fill="none" stroke="black" d="M568.05,-122.11C568.05,-122.11 568.05,-140.99 568.05,-140.99"/>
<polygon fill="black" stroke="black" points="564.55,-140.99 568.05,-150.99 571.55,-140.99 564.55,-140.99"/>
</g>
<!-- AppComponent  -->
<g id="node7" class="node">
<title>AppComponent </title>
<polygon fill="#80b1d3" stroke="black" points="592.44,-252 483.56,-252 483.56,-216 592.44,-216 592.44,-252"/>
<text text-anchor="middle" x="538" y="-229.8" font-family="Times,serif" font-size="14.00">AppComponent </text>
</g>
<!-- AppModule&#45;&gt;AppComponent  -->
<g id="edge7" class="edge">
<title>AppModule&#45;&gt;AppComponent </title>
<path fill="none" stroke="black" stroke-dasharray="1,5" d="M538,-187.11C538,-187.11 538,-205.99 538,-205.99"/>
<polygon fill="black" stroke="black" points="534.5,-205.99 538,-215.99 541.5,-205.99 534.5,-205.99"/>
</g>
<!-- AppRoutingModule -->
<g id="node6" class="node">
<title>AppRoutingModule</title>
<polygon fill="#8dd3c7" stroke="black" points="532.27,-122 529.27,-126 508.27,-126 505.27,-122 403.73,-122 403.73,-86 532.27,-86 532.27,-122"/>
<text text-anchor="middle" x="468" y="-99.8" font-family="Times,serif" font-size="14.00">AppRoutingModule</text>
</g>
<!-- AppRoutingModule&#45;&gt;AppModule -->
<g id="edge6" class="edge">
<title>AppRoutingModule&#45;&gt;AppModule</title>
<path fill="none" stroke="black" d="M514.28,-122.11C514.28,-122.11 514.28,-140.99 514.28,-140.99"/>
<polygon fill="black" stroke="black" points="510.78,-140.99 514.28,-150.99 517.78,-140.99 510.78,-140.99"/>
</g>
<!-- ExploreContainerComponent -->
<g id="node8" class="node">
<title>ExploreContainerComponent</title>
<polygon fill="#ffffb3" stroke="black" points="896.36,-122 715.64,-122 715.64,-86 896.36,-86 896.36,-122"/>
<text text-anchor="middle" x="806" y="-99.8" font-family="Times,serif" font-size="14.00">ExploreContainerComponent</text>
</g>
<!-- ExploreContainerComponentModule -->
<g id="node9" class="node">
<title>ExploreContainerComponentModule</title>
<polygon fill="#8dd3c7" stroke="black" points="918.41,-187 915.41,-191 894.41,-191 891.41,-187 693.59,-187 693.59,-151 918.41,-151 918.41,-187"/>
<text text-anchor="middle" x="806" y="-164.8" font-family="Times,serif" font-size="14.00">ExploreContainerComponentModule</text>
</g>
<!-- ExploreContainerComponent&#45;&gt;ExploreContainerComponentModule -->
<g id="edge8" class="edge">
<title>ExploreContainerComponent&#45;&gt;ExploreContainerComponentModule</title>
<path fill="none" stroke="black" d="M806,-122.11C806,-122.11 806,-140.99 806,-140.99"/>
<polygon fill="black" stroke="black" points="802.5,-140.99 806,-150.99 809.5,-140.99 802.5,-140.99"/>
</g>
<!-- ExploreContainerComponent  -->
<g id="node10" class="node">
<title>ExploreContainerComponent </title>
<polygon fill="#fb8072" stroke="black" points="898.36,-252 713.64,-252 713.64,-216 898.36,-216 898.36,-252"/>
<text text-anchor="middle" x="806" y="-229.8" font-family="Times,serif" font-size="14.00">ExploreContainerComponent </text>
</g>
<!-- ExploreContainerComponentModule&#45;&gt;ExploreContainerComponent  -->
<g id="edge9" class="edge">
<title>ExploreContainerComponentModule&#45;&gt;ExploreContainerComponent </title>
<path fill="none" stroke="black" stroke-dasharray="5,2" d="M806,-187.11C806,-187.11 806,-205.99 806,-205.99"/>
<polygon fill="black" stroke="black" points="802.5,-205.99 806,-215.99 809.5,-205.99 802.5,-205.99"/>
</g>
<!-- OpeningScreenPage -->
<g id="node11" class="node">
<title>OpeningScreenPage</title>
<polygon fill="#ffffb3" stroke="black" points="1321.51,-122 1192.49,-122 1192.49,-86 1321.51,-86 1321.51,-122"/>
<text text-anchor="middle" x="1257" y="-99.8" font-family="Times,serif" font-size="14.00">OpeningScreenPage</text>
</g>
<!-- OpeningScreenPageModule -->
<g id="node12" class="node">
<title>OpeningScreenPageModule</title>
<polygon fill="#8dd3c7" stroke="black" points="1237.56,-187 1234.56,-191 1213.56,-191 1210.56,-187 1064.44,-187 1064.44,-151 1237.56,-151 1237.56,-187"/>
<text text-anchor="middle" x="1151" y="-164.8" font-family="Times,serif" font-size="14.00">OpeningScreenPageModule</text>
</g>
<!-- OpeningScreenPage&#45;&gt;OpeningScreenPageModule -->
<g id="edge10" class="edge">
<title>OpeningScreenPage&#45;&gt;OpeningScreenPageModule</title>
<path fill="none" stroke="black" d="M1214.89,-122.11C1214.89,-122.11 1214.89,-140.99 1214.89,-140.99"/>
<polygon fill="black" stroke="black" points="1211.39,-140.99 1214.89,-150.99 1218.39,-140.99 1211.39,-140.99"/>
</g>
<!-- OpeningScreenPageRoutingModule -->
<g id="node13" class="node">
<title>OpeningScreenPageRoutingModule</title>
<polygon fill="#8dd3c7" stroke="black" points="1168.18,-122 1165.18,-126 1144.18,-126 1141.18,-122 949.82,-122 949.82,-86 1168.18,-86 1168.18,-122"/>
<text text-anchor="middle" x="1059" y="-99.8" font-family="Times,serif" font-size="14.00">OpeningScreenPageRoutingModule</text>
</g>
<!-- OpeningScreenPageRoutingModule&#45;&gt;OpeningScreenPageModule -->
<g id="edge11" class="edge">
<title>OpeningScreenPageRoutingModule&#45;&gt;OpeningScreenPageModule</title>
<path fill="none" stroke="black" d="M1116.28,-122.11C1116.28,-122.11 1116.28,-140.99 1116.28,-140.99"/>
<polygon fill="black" stroke="black" points="1112.78,-140.99 1116.28,-150.99 1119.78,-140.99 1112.78,-140.99"/>
</g>
<!-- PickZonePage -->
<g id="node14" class="node">
<title>PickZonePage</title>
<polygon fill="#ffffb3" stroke="black" points="1668.37,-122 1571.63,-122 1571.63,-86 1668.37,-86 1668.37,-122"/>
<text text-anchor="middle" x="1620" y="-99.8" font-family="Times,serif" font-size="14.00">PickZonePage</text>
</g>
<!-- PickZonePageModule -->
<g id="node15" class="node">
<title>PickZonePageModule</title>
<polygon fill="#8dd3c7" stroke="black" points="1600.42,-187 1597.42,-191 1576.42,-191 1573.42,-187 1459.58,-187 1459.58,-151 1600.42,-151 1600.42,-187"/>
<text text-anchor="middle" x="1530" y="-164.8" font-family="Times,serif" font-size="14.00">PickZonePageModule</text>
</g>
<!-- PickZonePage&#45;&gt;PickZonePageModule -->
<g id="edge12" class="edge">
<title>PickZonePage&#45;&gt;PickZonePageModule</title>
<path fill="none" stroke="black" d="M1585.89,-122.11C1585.89,-122.11 1585.89,-140.99 1585.89,-140.99"/>
<polygon fill="black" stroke="black" points="1582.39,-140.99 1585.89,-150.99 1589.39,-140.99 1582.39,-140.99"/>
</g>
<!-- PickZonePageRoutingModule -->
<g id="node16" class="node">
<title>PickZonePageRoutingModule</title>
<polygon fill="#8dd3c7" stroke="black" points="1547.53,-122 1544.53,-126 1523.53,-126 1520.53,-122 1362.47,-122 1362.47,-86 1547.53,-86 1547.53,-122"/>
<text text-anchor="middle" x="1455" y="-99.8" font-family="Times,serif" font-size="14.00">PickZonePageRoutingModule</text>
</g>
<!-- PickZonePageRoutingModule&#45;&gt;PickZonePageModule -->
<g id="edge13" class="edge">
<title>PickZonePageRoutingModule&#45;&gt;PickZonePageModule</title>
<path fill="none" stroke="black" d="M1503.78,-122.11C1503.78,-122.11 1503.78,-140.99 1503.78,-140.99"/>
<polygon fill="black" stroke="black" points="1500.28,-140.99 1503.78,-150.99 1507.28,-140.99 1500.28,-140.99"/>
</g>
<!-- SignInPage -->
<g id="node17" class="node">
<title>SignInPage</title>
<polygon fill="#ffffb3" stroke="black" points="1982.05,-122 1901.95,-122 1901.95,-86 1982.05,-86 1982.05,-122"/>
<text text-anchor="middle" x="1942" y="-99.8" font-family="Times,serif" font-size="14.00">SignInPage</text>
</g>
<!-- SignInPageModule -->
<g id="node18" class="node">
<title>SignInPageModule</title>
<polygon fill="#8dd3c7" stroke="black" points="1922.1,-187 1919.1,-191 1898.1,-191 1895.1,-187 1797.9,-187 1797.9,-151 1922.1,-151 1922.1,-187"/>
<text text-anchor="middle" x="1860" y="-164.8" font-family="Times,serif" font-size="14.00">SignInPageModule</text>
</g>
<!-- SignInPage&#45;&gt;SignInPageModule -->
<g id="edge14" class="edge">
<title>SignInPage&#45;&gt;SignInPageModule</title>
<path fill="none" stroke="black" d="M1911.89,-122.11C1911.89,-122.11 1911.89,-140.99 1911.89,-140.99"/>
<polygon fill="black" stroke="black" points="1908.39,-140.99 1911.89,-150.99 1915.39,-140.99 1908.39,-140.99"/>
</g>
<!-- SignInPageRoutingModule -->
<g id="node19" class="node">
<title>SignInPageRoutingModule</title>
<polygon fill="#8dd3c7" stroke="black" points="1877.71,-122 1874.71,-126 1853.71,-126 1850.71,-122 1708.29,-122 1708.29,-86 1877.71,-86 1877.71,-122"/>
<text text-anchor="middle" x="1793" y="-99.8" font-family="Times,serif" font-size="14.00">SignInPageRoutingModule</text>
</g>
<!-- SignInPageRoutingModule&#45;&gt;SignInPageModule -->
<g id="edge15" class="edge">
<title>SignInPageRoutingModule&#45;&gt;SignInPageModule</title>
<path fill="none" stroke="black" d="M1837.78,-122.11C1837.78,-122.11 1837.78,-140.99 1837.78,-140.99"/>
<polygon fill="black" stroke="black" points="1834.28,-140.99 1837.78,-150.99 1841.28,-140.99 1834.28,-140.99"/>
</g>
<!-- StartScreenPage -->
<g id="node20" class="node">
<title>StartScreenPage</title>
<polygon fill="#ffffb3" stroke="black" points="2349.74,-122 2242.26,-122 2242.26,-86 2349.74,-86 2349.74,-122"/>
<text text-anchor="middle" x="2296" y="-99.8" font-family="Times,serif" font-size="14.00">StartScreenPage</text>
</g>
<!-- StartScreenPageModule -->
<g id="node21" class="node">
<title>StartScreenPageModule</title>
<polygon fill="#8dd3c7" stroke="black" points="2276.79,-187 2273.79,-191 2252.79,-191 2249.79,-187 2125.21,-187 2125.21,-151 2276.79,-151 2276.79,-187"/>
<text text-anchor="middle" x="2201" y="-164.8" font-family="Times,serif" font-size="14.00">StartScreenPageModule</text>
</g>
<!-- StartScreenPage&#45;&gt;StartScreenPageModule -->
<g id="edge16" class="edge">
<title>StartScreenPage&#45;&gt;StartScreenPageModule</title>
<path fill="none" stroke="black" d="M2259.39,-122.11C2259.39,-122.11 2259.39,-140.99 2259.39,-140.99"/>
<polygon fill="black" stroke="black" points="2255.89,-140.99 2259.39,-150.99 2262.89,-140.99 2255.89,-140.99"/>
</g>
<!-- StartScreenPageRoutingModule -->
<g id="node22" class="node">
<title>StartScreenPageRoutingModule</title>
<polygon fill="#8dd3c7" stroke="black" points="2218.41,-122 2215.41,-126 2194.41,-126 2191.41,-122 2021.59,-122 2021.59,-86 2218.41,-86 2218.41,-122"/>
<text text-anchor="middle" x="2120" y="-99.8" font-family="Times,serif" font-size="14.00">StartScreenPageRoutingModule</text>
</g>
<!-- StartScreenPageRoutingModule&#45;&gt;StartScreenPageModule -->
<g id="edge17" class="edge">
<title>StartScreenPageRoutingModule&#45;&gt;StartScreenPageModule</title>
<path fill="none" stroke="black" d="M2171.78,-122.11C2171.78,-122.11 2171.78,-140.99 2171.78,-140.99"/>
<polygon fill="black" stroke="black" points="2168.28,-140.99 2171.78,-150.99 2175.28,-140.99 2168.28,-140.99"/>
</g>
<!-- SystemresetedPage -->
<g id="node23" class="node">
<title>SystemresetedPage</title>
<polygon fill="#ffffb3" stroke="black" points="2750.07,-122 2625.93,-122 2625.93,-86 2750.07,-86 2750.07,-122"/>
<text text-anchor="middle" x="2688" y="-99.8" font-family="Times,serif" font-size="14.00">SystemresetedPage</text>
</g>
<!-- SystemresetedPageModule -->
<g id="node24" class="node">
<title>SystemresetedPageModule</title>
<polygon fill="#8dd3c7" stroke="black" points="2668.62,-187 2665.62,-191 2644.62,-191 2641.62,-187 2501.38,-187 2501.38,-151 2668.62,-151 2668.62,-187"/>
<text text-anchor="middle" x="2585" y="-164.8" font-family="Times,serif" font-size="14.00">SystemresetedPageModule</text>
</g>
<!-- SystemresetedPage&#45;&gt;SystemresetedPageModule -->
<g id="edge18" class="edge">
<title>SystemresetedPage&#45;&gt;SystemresetedPageModule</title>
<path fill="none" stroke="black" d="M2647.39,-122.11C2647.39,-122.11 2647.39,-140.99 2647.39,-140.99"/>
<polygon fill="black" stroke="black" points="2643.89,-140.99 2647.39,-150.99 2650.89,-140.99 2643.89,-140.99"/>
</g>
<!-- SystemresetedPageRoutingModule -->
<g id="node25" class="node">
<title>SystemresetedPageRoutingModule</title>
<polygon fill="#8dd3c7" stroke="black" points="2602.24,-122 2599.24,-126 2578.24,-126 2575.24,-122 2389.76,-122 2389.76,-86 2602.24,-86 2602.24,-122"/>
<text text-anchor="middle" x="2496" y="-99.8" font-family="Times,serif" font-size="14.00">SystemresetedPageRoutingModule</text>
</g>
<!-- SystemresetedPageRoutingModule&#45;&gt;SystemresetedPageModule -->
<g id="edge19" class="edge">
<title>SystemresetedPageRoutingModule&#45;&gt;SystemresetedPageModule</title>
<path fill="none" stroke="black" d="M2551.78,-122.11C2551.78,-122.11 2551.78,-140.99 2551.78,-140.99"/>
<polygon fill="black" stroke="black" points="2548.28,-140.99 2551.78,-150.99 2555.28,-140.99 2548.28,-140.99"/>
</g>
<!-- SystemSolutionPage -->
<g id="node26" class="node">
<title>SystemSolutionPage</title>
<polygon fill="#ffffb3" stroke="black" points="3165.89,-122 3034.11,-122 3034.11,-86 3165.89,-86 3165.89,-122"/>
<text text-anchor="middle" x="3100" y="-99.8" font-family="Times,serif" font-size="14.00">SystemSolutionPage</text>
</g>
<!-- SystemSolutionPageModule -->
<g id="node27" class="node">
<title>SystemSolutionPageModule</title>
<polygon fill="#8dd3c7" stroke="black" points="3080.94,-187 3077.94,-191 3056.94,-191 3053.94,-187 2905.06,-187 2905.06,-151 3080.94,-151 3080.94,-187"/>
<text text-anchor="middle" x="2993" y="-164.8" font-family="Times,serif" font-size="14.00">SystemSolutionPageModule</text>
</g>
<!-- SystemSolutionPage&#45;&gt;SystemSolutionPageModule -->
<g id="edge20" class="edge">
<title>SystemSolutionPage&#45;&gt;SystemSolutionPageModule</title>
<path fill="none" stroke="black" d="M3057.39,-122.11C3057.39,-122.11 3057.39,-140.99 3057.39,-140.99"/>
<polygon fill="black" stroke="black" points="3053.89,-140.99 3057.39,-150.99 3060.89,-140.99 3053.89,-140.99"/>
</g>
<!-- SystemSolutionPageRoutingModule -->
<g id="node28" class="node">
<title>SystemSolutionPageRoutingModule</title>
<polygon fill="#8dd3c7" stroke="black" points="3010.06,-122 3007.06,-126 2986.06,-126 2983.06,-122 2789.94,-122 2789.94,-86 3010.06,-86 3010.06,-122"/>
<text text-anchor="middle" x="2900" y="-99.8" font-family="Times,serif" font-size="14.00">SystemSolutionPageRoutingModule</text>
</g>
<!-- SystemSolutionPageRoutingModule&#45;&gt;SystemSolutionPageModule -->
<g id="edge21" class="edge">
<title>SystemSolutionPageRoutingModule&#45;&gt;SystemSolutionPageModule</title>
<path fill="none" stroke="black" d="M2957.78,-122.11C2957.78,-122.11 2957.78,-140.99 2957.78,-140.99"/>
<polygon fill="black" stroke="black" points="2954.28,-140.99 2957.78,-150.99 2961.28,-140.99 2954.28,-140.99"/>
</g>
<!-- Tab1Page -->
<g id="node29" class="node">
<title>Tab1Page</title>
<polygon fill="#ffffb3" stroke="black" points="3461.98,-122 3390.02,-122 3390.02,-86 3461.98,-86 3461.98,-122"/>
<text text-anchor="middle" x="3426" y="-99.8" font-family="Times,serif" font-size="14.00">Tab1Page</text>
</g>
<!-- Tab1PageModule -->
<g id="node30" class="node">
<title>Tab1PageModule</title>
<polygon fill="#8dd3c7" stroke="black" points="3406.53,-187 3403.53,-191 3382.53,-191 3379.53,-187 3291.47,-187 3291.47,-151 3406.53,-151 3406.53,-187"/>
<text text-anchor="middle" x="3349" y="-164.8" font-family="Times,serif" font-size="14.00">Tab1PageModule</text>
</g>
<!-- Tab1Page&#45;&gt;Tab1PageModule -->
<g id="edge22" class="edge">
<title>Tab1Page&#45;&gt;Tab1PageModule</title>
<path fill="none" stroke="black" d="M3398.39,-122.11C3398.39,-122.11 3398.39,-140.99 3398.39,-140.99"/>
<polygon fill="black" stroke="black" points="3394.89,-140.99 3398.39,-150.99 3401.89,-140.99 3394.89,-140.99"/>
</g>
<!-- Tab1PageRoutingModule -->
<g id="node31" class="node">
<title>Tab1PageRoutingModule</title>
<polygon fill="#8dd3c7" stroke="black" points="3366.15,-122 3363.15,-126 3342.15,-126 3339.15,-122 3205.85,-122 3205.85,-86 3366.15,-86 3366.15,-122"/>
<text text-anchor="middle" x="3286" y="-99.8" font-family="Times,serif" font-size="14.00">Tab1PageRoutingModule</text>
</g>
<!-- Tab1PageRoutingModule&#45;&gt;Tab1PageModule -->
<g id="edge23" class="edge">
<title>Tab1PageRoutingModule&#45;&gt;Tab1PageModule</title>
<path fill="none" stroke="black" d="M3328.78,-122.11C3328.78,-122.11 3328.78,-140.99 3328.78,-140.99"/>
<polygon fill="black" stroke="black" points="3325.28,-140.99 3328.78,-150.99 3332.28,-140.99 3325.28,-140.99"/>
</g>
<!-- Tab2Page -->
<g id="node32" class="node">
<title>Tab2Page</title>
<polygon fill="#ffffb3" stroke="black" points="3757.98,-122 3686.02,-122 3686.02,-86 3757.98,-86 3757.98,-122"/>
<text text-anchor="middle" x="3722" y="-99.8" font-family="Times,serif" font-size="14.00">Tab2Page</text>
</g>
<!-- Tab2PageModule -->
<g id="node33" class="node">
<title>Tab2PageModule</title>
<polygon fill="#8dd3c7" stroke="black" points="3702.53,-187 3699.53,-191 3678.53,-191 3675.53,-187 3587.47,-187 3587.47,-151 3702.53,-151 3702.53,-187"/>
<text text-anchor="middle" x="3645" y="-164.8" font-family="Times,serif" font-size="14.00">Tab2PageModule</text>
</g>
<!-- Tab2Page&#45;&gt;Tab2PageModule -->
<g id="edge24" class="edge">
<title>Tab2Page&#45;&gt;Tab2PageModule</title>
<path fill="none" stroke="black" d="M3694.39,-122.11C3694.39,-122.11 3694.39,-140.99 3694.39,-140.99"/>
<polygon fill="black" stroke="black" points="3690.89,-140.99 3694.39,-150.99 3697.89,-140.99 3690.89,-140.99"/>
</g>
<!-- Tab2PageRoutingModule -->
<g id="node34" class="node">
<title>Tab2PageRoutingModule</title>
<polygon fill="#8dd3c7" stroke="black" points="3662.15,-122 3659.15,-126 3638.15,-126 3635.15,-122 3501.85,-122 3501.85,-86 3662.15,-86 3662.15,-122"/>
<text text-anchor="middle" x="3582" y="-99.8" font-family="Times,serif" font-size="14.00">Tab2PageRoutingModule</text>
</g>
<!-- Tab2PageRoutingModule&#45;&gt;Tab2PageModule -->
<g id="edge25" class="edge">
<title>Tab2PageRoutingModule&#45;&gt;Tab2PageModule</title>
<path fill="none" stroke="black" d="M3624.78,-122.11C3624.78,-122.11 3624.78,-140.99 3624.78,-140.99"/>
<polygon fill="black" stroke="black" points="3621.28,-140.99 3624.78,-150.99 3628.28,-140.99 3621.28,-140.99"/>
</g>
<!-- Tab3Page -->
<g id="node35" class="node">
<title>Tab3Page</title>
<polygon fill="#ffffb3" stroke="black" points="4053.98,-122 3982.02,-122 3982.02,-86 4053.98,-86 4053.98,-122"/>
<text text-anchor="middle" x="4018" y="-99.8" font-family="Times,serif" font-size="14.00">Tab3Page</text>
</g>
<!-- Tab3PageModule -->
<g id="node36" class="node">
<title>Tab3PageModule</title>
<polygon fill="#8dd3c7" stroke="black" points="3998.53,-187 3995.53,-191 3974.53,-191 3971.53,-187 3883.47,-187 3883.47,-151 3998.53,-151 3998.53,-187"/>
<text text-anchor="middle" x="3941" y="-164.8" font-family="Times,serif" font-size="14.00">Tab3PageModule</text>
</g>
<!-- Tab3Page&#45;&gt;Tab3PageModule -->
<g id="edge26" class="edge">
<title>Tab3Page&#45;&gt;Tab3PageModule</title>
<path fill="none" stroke="black" d="M3990.39,-122.11C3990.39,-122.11 3990.39,-140.99 3990.39,-140.99"/>
<polygon fill="black" stroke="black" points="3986.89,-140.99 3990.39,-150.99 3993.89,-140.99 3986.89,-140.99"/>
</g>
<!-- Tab3PageRoutingModule -->
<g id="node37" class="node">
<title>Tab3PageRoutingModule</title>
<polygon fill="#8dd3c7" stroke="black" points="3958.15,-122 3955.15,-126 3934.15,-126 3931.15,-122 3797.85,-122 3797.85,-86 3958.15,-86 3958.15,-122"/>
<text text-anchor="middle" x="3878" y="-99.8" font-family="Times,serif" font-size="14.00">Tab3PageRoutingModule</text>
</g>
<!-- Tab3PageRoutingModule&#45;&gt;Tab3PageModule -->
<g id="edge27" class="edge">
<title>Tab3PageRoutingModule&#45;&gt;Tab3PageModule</title>
<path fill="none" stroke="black" d="M3920.78,-122.11C3920.78,-122.11 3920.78,-140.99 3920.78,-140.99"/>
<polygon fill="black" stroke="black" points="3917.28,-140.99 3920.78,-150.99 3924.28,-140.99 3917.28,-140.99"/>
</g>
<!-- TabsPage -->
<g id="node38" class="node">
<title>TabsPage</title>
<polygon fill="#ffffb3" stroke="black" points="4348.42,-122 4277.58,-122 4277.58,-86 4348.42,-86 4348.42,-122"/>
<text text-anchor="middle" x="4313" y="-99.8" font-family="Times,serif" font-size="14.00">TabsPage</text>
</g>
<!-- TabsPageModule -->
<g id="node39" class="node">
<title>TabsPageModule</title>
<polygon fill="#8dd3c7" stroke="black" points="4292.97,-187 4289.97,-191 4268.97,-191 4265.97,-187 4179.03,-187 4179.03,-151 4292.97,-151 4292.97,-187"/>
<text text-anchor="middle" x="4236" y="-164.8" font-family="Times,serif" font-size="14.00">TabsPageModule</text>
</g>
<!-- TabsPage&#45;&gt;TabsPageModule -->
<g id="edge28" class="edge">
<title>TabsPage&#45;&gt;TabsPageModule</title>
<path fill="none" stroke="black" d="M4285.39,-122.11C4285.39,-122.11 4285.39,-140.99 4285.39,-140.99"/>
<polygon fill="black" stroke="black" points="4281.89,-140.99 4285.39,-150.99 4288.89,-140.99 4281.89,-140.99"/>
</g>
<!-- TabsPageRoutingModule -->
<g id="node40" class="node">
<title>TabsPageRoutingModule</title>
<polygon fill="#8dd3c7" stroke="black" points="4253.59,-122 4250.59,-126 4229.59,-126 4226.59,-122 4094.41,-122 4094.41,-86 4253.59,-86 4253.59,-122"/>
<text text-anchor="middle" x="4174" y="-99.8" font-family="Times,serif" font-size="14.00">TabsPageRoutingModule</text>
</g>
<!-- TabsPageRoutingModule&#45;&gt;TabsPageModule -->
<g id="edge29" class="edge">
<title>TabsPageRoutingModule&#45;&gt;TabsPageModule</title>
<path fill="none" stroke="black" d="M4216.28,-122.11C4216.28,-122.11 4216.28,-140.99 4216.28,-140.99"/>
<polygon fill="black" stroke="black" points="4212.78,-140.99 4216.28,-150.99 4219.78,-140.99 4212.78,-140.99"/>
</g>
<!-- TempSumPage -->
<g id="node41" class="node">
<title>TempSumPage</title>
<polygon fill="#ffffb3" stroke="black" points="4703.54,-122 4602.46,-122 4602.46,-86 4703.54,-86 4703.54,-122"/>
<text text-anchor="middle" x="4653" y="-99.8" font-family="Times,serif" font-size="14.00">TempSumPage</text>
</g>
<!-- TempSumPageModule -->
<g id="node42" class="node">
<title>TempSumPageModule</title>
<polygon fill="#8dd3c7" stroke="black" points="4633.59,-187 4630.59,-191 4609.59,-191 4606.59,-187 4488.41,-187 4488.41,-151 4633.59,-151 4633.59,-187"/>
<text text-anchor="middle" x="4561" y="-164.8" font-family="Times,serif" font-size="14.00">TempSumPageModule</text>
</g>
<!-- TempSumPage&#45;&gt;TempSumPageModule -->
<g id="edge30" class="edge">
<title>TempSumPage&#45;&gt;TempSumPageModule</title>
<path fill="none" stroke="black" d="M4617.89,-122.11C4617.89,-122.11 4617.89,-140.99 4617.89,-140.99"/>
<polygon fill="black" stroke="black" points="4614.39,-140.99 4617.89,-150.99 4621.39,-140.99 4614.39,-140.99"/>
</g>
<!-- TempSumPageRoutingModule -->
<g id="node43" class="node">
<title>TempSumPageRoutingModule</title>
<polygon fill="#8dd3c7" stroke="black" points="4578.21,-122 4575.21,-126 4554.21,-126 4551.21,-122 4387.79,-122 4387.79,-86 4578.21,-86 4578.21,-122"/>
<text text-anchor="middle" x="4483" y="-99.8" font-family="Times,serif" font-size="14.00">TempSumPageRoutingModule</text>
</g>
<!-- TempSumPageRoutingModule&#45;&gt;TempSumPageModule -->
<g id="edge31" class="edge">
<title>TempSumPageRoutingModule&#45;&gt;TempSumPageModule</title>
<path fill="none" stroke="black" d="M4533.28,-122.11C4533.28,-122.11 4533.28,-140.99 4533.28,-140.99"/>
<polygon fill="black" stroke="black" points="4529.78,-140.99 4533.28,-150.99 4536.78,-140.99 4529.78,-140.99"/>
</g>
<!-- WelcomeScreenPage -->
<g id="node44" class="node">
<title>WelcomeScreenPage</title>
<polygon fill="#ffffb3" stroke="black" points="5126.44,-122 4991.56,-122 4991.56,-86 5126.44,-86 5126.44,-122"/>
<text text-anchor="middle" x="5059" y="-99.8" font-family="Times,serif" font-size="14.00">WelcomeScreenPage</text>
</g>
<!-- WelcomeScreenPageModule -->
<g id="node45" class="node">
<title>WelcomeScreenPageModule</title>
<polygon fill="#8dd3c7" stroke="black" points="5039.49,-187 5036.49,-191 5015.49,-191 5012.49,-187 4860.51,-187 4860.51,-151 5039.49,-151 5039.49,-187"/>
<text text-anchor="middle" x="4950" y="-164.8" font-family="Times,serif" font-size="14.00">WelcomeScreenPageModule</text>
</g>
<!-- WelcomeScreenPage&#45;&gt;WelcomeScreenPageModule -->
<g id="edge32" class="edge">
<title>WelcomeScreenPage&#45;&gt;WelcomeScreenPageModule</title>
<path fill="none" stroke="black" d="M5015.39,-122.11C5015.39,-122.11 5015.39,-140.99 5015.39,-140.99"/>
<polygon fill="black" stroke="black" points="5011.89,-140.99 5015.39,-150.99 5018.89,-140.99 5011.89,-140.99"/>
</g>
<!-- WelcomeScreenPageRoutingModule -->
<g id="node46" class="node">
<title>WelcomeScreenPageRoutingModule</title>
<polygon fill="#8dd3c7" stroke="black" points="4967.61,-122 4964.61,-126 4943.61,-126 4940.61,-122 4744.39,-122 4744.39,-86 4967.61,-86 4967.61,-122"/>
<text text-anchor="middle" x="4856" y="-99.8" font-family="Times,serif" font-size="14.00">WelcomeScreenPageRoutingModule</text>
</g>
<!-- WelcomeScreenPageRoutingModule&#45;&gt;WelcomeScreenPageModule -->
<g id="edge33" class="edge">
<title>WelcomeScreenPageRoutingModule&#45;&gt;WelcomeScreenPageModule</title>
<path fill="none" stroke="black" d="M4914.28,-122.11C4914.28,-122.11 4914.28,-140.99 4914.28,-140.99"/>
<polygon fill="black" stroke="black" points="4910.78,-140.99 4914.28,-150.99 4917.78,-140.99 4910.78,-140.99"/>
</g>
<!-- ZoneScreenPage -->
<g id="node47" class="node">
<title>ZoneScreenPage</title>
<polygon fill="#ffffb3" stroke="black" points="5498.07,-122 5387.93,-122 5387.93,-86 5498.07,-86 5498.07,-122"/>
<text text-anchor="middle" x="5443" y="-99.8" font-family="Times,serif" font-size="14.00">ZoneScreenPage</text>
</g>
<!-- ZoneScreenPageModule -->
<g id="node48" class="node">
<title>ZoneScreenPageModule</title>
<polygon fill="#8dd3c7" stroke="black" points="5423.62,-187 5420.62,-191 5399.62,-191 5396.62,-187 5270.38,-187 5270.38,-151 5423.62,-151 5423.62,-187"/>
<text text-anchor="middle" x="5347" y="-164.8" font-family="Times,serif" font-size="14.00">ZoneScreenPageModule</text>
</g>
<!-- ZoneScreenPage&#45;&gt;ZoneScreenPageModule -->
<g id="edge34" class="edge">
<title>ZoneScreenPage&#45;&gt;ZoneScreenPageModule</title>
<path fill="none" stroke="black" d="M5405.89,-122.11C5405.89,-122.11 5405.89,-140.99 5405.89,-140.99"/>
<polygon fill="black" stroke="black" points="5402.39,-140.99 5405.89,-150.99 5409.39,-140.99 5402.39,-140.99"/>
</g>
<!-- ZoneScreenPageRoutingModule -->
<g id="node49" class="node">
<title>ZoneScreenPageRoutingModule</title>
<polygon fill="#8dd3c7" stroke="black" points="5364.23,-122 5361.23,-126 5340.23,-126 5337.23,-122 5165.77,-122 5165.77,-86 5364.23,-86 5364.23,-122"/>
<text text-anchor="middle" x="5265" y="-99.8" font-family="Times,serif" font-size="14.00">ZoneScreenPageRoutingModule</text>
</g>
<!-- ZoneScreenPageRoutingModule&#45;&gt;ZoneScreenPageModule -->
<g id="edge35" class="edge">
<title>ZoneScreenPageRoutingModule&#45;&gt;ZoneScreenPageModule</title>
<path fill="none" stroke="black" d="M5317.28,-122.11C5317.28,-122.11 5317.28,-140.99 5317.28,-140.99"/>
<polygon fill="black" stroke="black" points="5313.78,-140.99 5317.28,-150.99 5320.78,-140.99 5313.78,-140.99"/>
</g>
</g>
</svg>
